<svg width="36" height="36" viewBox="0 0 36 36" fill="none" xmlns="http://www.w3.org/2000/svg">
<path d="M28.4424 2.75C29.0495 2.75 29.5935 2.97675 30.0244 3.38086L30.0254 3.37988C30.0337 3.38717 30.0407 3.39595 30.0488 3.40332C30.0608 3.4148 30.0742 3.42476 30.0859 3.43652L30.084 3.43848C30.538 3.866 30.7705 4.42829 30.7705 5.04004V9.7998C30.7705 10.2472 30.6891 10.69 30.5039 11.1074L30.4922 11.1328L30.4795 11.1582C30.3362 11.4453 30.1656 11.7152 29.9629 11.959L29.958 11.9648L25.8203 16.8838C23.5751 19.5536 25.4733 23.6299 28.9619 23.6299C29.5683 23.6299 30.1256 23.8591 30.5508 24.3047C31.0137 24.7337 31.25 25.3022 31.25 25.9199V30.96C31.25 31.5151 31.0621 32.0192 30.7207 32.4316L30.5654 32.6035C30.1178 33.0519 29.5464 33.25 28.9619 33.25H7.03809C6.44842 33.25 5.92021 33.0327 5.49512 32.6602L5.46387 32.6328L5.43457 32.6035C4.99486 32.1631 4.75 31.5946 4.75 30.96L4.75 26.1201C4.75 25.6078 4.84003 25.0741 5.10645 24.5938L5.13086 24.5498L5.15918 24.5078L5.29102 24.3145C5.40946 24.1469 5.53591 23.9887 5.66406 23.8525L5.66211 23.8516L10.29 18.6182L10.4824 18.3848C12.3524 15.9236 10.6151 12.29 7.4375 12.29C6.85287 12.29 6.30377 12.094 5.85449 11.7002L5.79199 11.6455L5.7373 11.582C5.34454 11.1323 5.14941 10.5839 5.14941 10L5.14941 5.04004C5.14941 4.45619 5.34638 3.88483 5.79395 3.43652L5.96484 3.28125C6.3769 2.93886 6.88136 2.75002 7.4375 2.75L28.4424 2.75Z" stroke="#ADADAD" stroke-width="2.5" stroke-linecap="square"/>
<path d="M11.0518 32.1855C10.602 32.7092 10.6618 33.4984 11.1855 33.9482C11.7092 34.398 12.4984 34.3382 12.9482 33.8145L11.0518 32.1855ZM25.3425 15.5493L11.0518 32.1855L12.9482 33.8145L27.2388 17.1783L25.3425 15.5493Z" fill="#ADADAD"/>
<path d="M9.95853 17.1778C9.50442 17.6977 9.55781 18.4874 10.0778 18.9415C10.5978 19.3956 11.3874 19.3422 11.8415 18.8222L9.95853 17.1778ZM23.0585 2.17776L9.95853 17.1778L11.8415 18.8222L24.9415 3.82224L23.0585 2.17776Z" fill="#ADADAD"/>
</svg>
