<svg width="32" height="32" viewBox="0 0 32 32" fill="none" xmlns="http://www.w3.org/2000/svg">
<path d="M24.3541 3.79999C24.8396 3.8 25.274 3.98177 25.6187 4.30487L25.6197 4.30389C25.6273 4.31049 25.6338 4.31869 25.6412 4.32538C25.65 4.33383 25.6599 4.34116 25.6685 4.34979L25.6676 4.35077C26.0307 4.69277 26.2164 5.14271 26.2164 5.63202V9.43964C26.2164 9.79758 26.1507 10.1516 26.0025 10.4855L25.9937 10.506L25.984 10.5266C25.8693 10.7563 25.7322 10.9721 25.5699 11.1672L25.567 11.1721L22.2564 15.1066C20.4599 17.2424 21.9783 20.5039 24.7691 20.5041C25.2589 20.5041 25.709 20.6906 26.0504 21.0539C26.4139 21.396 26.6002 21.8465 26.6002 22.3361V26.3683C26.6001 26.8759 26.404 27.3305 26.0523 27.6828C25.6942 28.0416 25.2368 28.2004 24.7691 28.2004L7.23105 28.2004C6.75926 28.2004 6.33678 28.0258 5.99667 27.7277L5.97128 27.7062L5.94785 27.6828C5.59616 27.3305 5.40009 26.8759 5.39999 26.3683L5.39999 22.4963L5.4039 22.342C5.42058 21.9803 5.49858 21.611 5.68515 21.2746L5.70468 21.2394L5.72714 21.2062C5.85241 21.018 5.98915 20.832 6.13046 20.6818L9.83163 16.4953C11.5697 14.5295 10.1742 11.4321 7.55038 11.4318C7.08265 11.4318 6.64323 11.2752 6.28378 10.9601L6.23398 10.9162L6.19003 10.8654C5.87583 10.5056 5.71933 10.0669 5.71933 9.59979L5.71933 5.63202C5.71933 5.16511 5.87718 4.70838 6.23495 4.34979L6.37167 4.22479C6.70135 3.95085 7.10543 3.79999 7.55038 3.79999L24.3541 3.79999Z" fill="#E0E0E0" stroke="#2A2A2A" stroke-width="2" stroke-linecap="square"/>
<path d="M21.6 16L11.3846 28" stroke="#2A2A2A" stroke-width="2" stroke-linecap="round"/>
<path d="M8.77921 16.2723C8.41979 16.6916 8.46835 17.3229 8.88768 17.6823C9.307 18.0418 9.9383 17.9932 10.2977 17.5739L8.77921 16.2723ZM20.6154 4L19.8561 3.34921L8.77921 16.2723L9.53847 16.9231L10.2977 17.5739L21.3746 4.65079L20.6154 4Z" fill="#2A2A2A"/>
</svg>
