<svg width="32" height="32" viewBox="0 0 32 32" fill="none" xmlns="http://www.w3.org/2000/svg">
<path d="M25.0502 2.86664C25.5553 2.86664 26.0068 3.05569 26.3656 3.39301L26.3666 3.39203C26.3735 3.39806 26.3794 3.40546 26.3861 3.41156C26.3955 3.4206 26.4062 3.42868 26.4154 3.43793L26.4145 3.4389C26.7916 3.79329 26.9848 4.25925 26.9848 4.76801V8.89301C26.9848 9.27051 26.9154 9.64271 26.7602 9.99261L26.7514 10.0131L26.7406 10.0336C26.6188 10.2775 26.4742 10.5057 26.3031 10.7114L26.3002 10.7153L22.7143 14.9789C20.7225 17.347 22.406 20.9623 25.5004 20.9623C26.0019 20.9624 26.4612 21.1508 26.8129 21.517C27.2019 21.8733 27.3997 22.347 27.3998 22.8637V27.2319C27.3998 27.7591 27.1964 28.2305 26.8305 28.5971C26.4599 28.9682 25.9875 29.1332 25.5004 29.1332L6.49942 29.1332C6.01024 29.1331 5.57231 28.9532 5.21817 28.643L5.19278 28.6205L5.16934 28.5971C4.80338 28.2305 4.60001 27.7591 4.60001 27.2319V23.0375C4.60001 22.6028 4.67687 22.1556 4.89883 21.7553L4.91837 21.7192L4.94083 21.686C5.07633 21.4824 5.22181 21.2851 5.37051 21.1274H5.36954L9.38028 16.5912C11.3106 14.4078 9.76047 10.9683 6.8461 10.9682C6.35888 10.9682 5.90332 10.8044 5.52969 10.477L5.47891 10.433L5.43497 10.3832C5.10831 10.0092 4.94575 9.55346 4.94571 9.06683L4.94571 4.76801C4.94571 4.28143 5.11049 3.80899 5.48087 3.43793C5.84686 3.07132 6.31819 2.86664 6.8461 2.86664L25.0502 2.86664Z" fill="white" stroke="black" stroke-width="2" stroke-linecap="square"/>
<path d="M22 16L11 29" stroke="black" stroke-width="2" stroke-linecap="round"/>
<path d="M8.24074 16.3492C7.88132 16.7685 7.92988 17.3998 8.34921 17.7593C8.76853 18.1187 9.39983 18.0701 9.75926 17.6508L8.24074 16.3492ZM21 3L20.2407 2.34921L8.24074 16.3492L9 17L9.75926 17.6508L21.7593 3.65079L21 3Z" fill="black"/>
</svg>
